<?xml version="1.0" standalone="no"?>
<!DOCTYPE svg PUBLIC "-//W3C//DTD SVG 20010904//EN"
 "http://www.w3.org/TR/2001/REC-SVG-20010904/DTD/svg10.dtd">
<svg version="1.0" xmlns="http://www.w3.org/2000/svg"
 width="512.000000pt" height="512.000000pt" viewBox="0 0 512.000000 512.000000"
 preserveAspectRatio="xMidYMid meet">
<metadata>
Created by potrace 1.14, written by Peter Selinger 2001-2017
</metadata>
<g transform="translate(0.000000,512.000000) scale(0.100000,-0.100000)"
fill="#000000" stroke="none">
<path d="M2575 3990 c-3 -5 -19 -10 -35 -10 -16 0 -31 -4 -34 -9 -5 -8 -63
-24 -91 -25 -5 -1 -12 -4 -15 -8 -3 -4 -15 -9 -25 -11 -11 -2 -30 -8 -41 -15
-12 -6 -24 -9 -27 -6 -3 3 -16 -1 -28 -9 -11 -9 -28 -13 -35 -10 -8 3 -14 0
-14 -6 0 -6 -8 -11 -19 -11 -10 0 -34 -7 -54 -15 -19 -8 -37 -11 -41 -8 -3 4
-6 1 -6 -6 0 -7 -10 -11 -24 -9 -13 1 -31 -3 -40 -11 -9 -7 -16 -10 -16 -6 0
4 -12 0 -26 -10 -14 -9 -28 -14 -32 -11 -3 3 -16 -1 -29 -9 -13 -9 -28 -13
-32 -10 -5 3 -15 -1 -23 -8 -7 -7 -20 -13 -28 -13 -16 -1 -37 -8 -80 -27 -14
-5 -32 -9 -41 -8 -9 1 -19 -6 -23 -15 -5 -13 -9 -14 -21 -4 -11 9 -15 9 -15 1
0 -7 -4 -10 -9 -6 -12 7 -61 -15 -61 -28 0 -5 -9 -7 -20 -4 -11 3 -26 0 -33
-7 -6 -6 -19 -11 -27 -11 -8 1 -20 -2 -25 -6 -6 -4 -24 -10 -40 -13 -39 -7
-85 -27 -85 -36 0 -4 -11 -5 -25 -2 -15 2 -25 0 -25 -7 0 -6 -11 -11 -24 -11
-14 0 -28 -4 -31 -10 -3 -5 -19 -10 -35 -10 -16 0 -45 -9 -65 -20 -20 -11 -44
-20 -53 -20 -10 0 -23 -5 -30 -12 -7 -7 -12 -9 -12 -5 0 4 -10 2 -23 -5 -12
-7 -29 -13 -37 -13 -8 0 -25 -6 -38 -13 -12 -7 -22 -10 -22 -7 0 3 -12 -1 -27
-8 -16 -8 -33 -12 -39 -10 -6 2 -16 -3 -23 -11 -7 -8 -21 -12 -33 -8 -13 3
-19 1 -15 -5 4 -6 -2 -13 -13 -16 -11 -3 -23 -1 -26 4 -3 5 -12 2 -20 -6 -9
-8 -24 -15 -35 -15 -10 0 -19 -5 -19 -11 0 -6 -6 -9 -14 -6 -8 3 -16 1 -18 -5
-2 -6 -13 -11 -23 -12 -31 -3 -75 -24 -75 -36 0 -6 -3 -9 -7 -7 -13 8 -28 -16
-31 -51 -4 -35 22 -87 39 -77 5 4 12 0 15 -9 3 -8 11 -13 19 -10 7 3 20 -2 29
-11 9 -9 21 -13 26 -10 6 4 17 1 25 -5 8 -7 15 -9 15 -5 0 4 6 2 13 -4 8 -6
17 -8 20 -4 4 3 7 1 7 -6 0 -9 9 -12 25 -9 16 4 29 0 34 -10 5 -8 15 -12 24
-9 9 3 17 2 19 -3 2 -4 14 -10 28 -12 14 -1 28 -7 31 -11 3 -4 17 -9 30 -10
13 -1 30 -7 36 -13 7 -7 21 -10 32 -7 15 4 20 0 18 -16 -1 -12 -5 -21 -9 -21
-4 0 -8 -5 -8 -11 0 -6 -9 -22 -20 -36 -11 -14 -17 -29 -14 -34 3 -5 0 -9 -6
-9 -10 0 -28 -37 -36 -74 -2 -11 -7 -22 -12 -25 -5 -3 -8 -14 -6 -24 1 -9 -3
-23 -10 -30 -6 -6 -11 -25 -9 -41 1 -16 -4 -34 -11 -42 -7 -7 -12 -25 -10 -41
1 -15 -1 -32 -5 -38 -4 -5 -9 -32 -10 -60 -1 -36 -7 -55 -21 -67 -11 -9 -20
-21 -20 -27 0 -6 -6 -10 -12 -9 -7 2 -12 -3 -10 -9 1 -7 -2 -13 -8 -13 -5 0
-17 -15 -26 -32 -21 -41 -26 -184 -7 -200 7 -6 13 -16 13 -22 0 -15 58 -71 82
-79 14 -5 15 -11 6 -39 -6 -18 -12 -53 -14 -77 -2 -25 -9 -48 -15 -52 -7 -4
-9 -16 -6 -28 3 -12 0 -27 -7 -34 -7 -7 -12 -20 -10 -30 1 -9 -4 -24 -13 -32
-8 -8 -11 -20 -8 -26 4 -5 0 -18 -8 -27 -9 -9 -16 -21 -17 -27 -6 -27 -21 -55
-30 -55 -6 0 -8 -4 -5 -10 7 -12 -19 -53 -28 -43 -4 3 -7 -3 -7 -13 0 -11 -5
-25 -12 -32 -7 -7 -8 -12 -4 -12 4 0 -6 -12 -23 -27 -17 -15 -31 -33 -31 -40
0 -7 -27 -40 -60 -73 -34 -33 -58 -60 -55 -60 4 0 -3 -12 -14 -26 -12 -15 -21
-31 -21 -36 0 -15 49 -60 59 -54 5 3 12 -1 15 -9 3 -8 9 -14 13 -14 12 3 46
-12 67 -30 10 -9 20 -15 22 -14 10 4 44 -10 44 -19 0 -5 4 -7 9 -3 5 3 16 -2
24 -10 11 -11 35 -15 84 -14 37 0 62 3 55 6 -6 2 -10 9 -7 13 3 5 11 7 18 4
14 -5 172 148 172 166 0 6 7 15 15 20 8 5 11 12 8 16 -4 4 -1 16 7 26 7 11 11
26 9 33 -3 7 2 15 10 18 8 3 12 14 10 25 -3 10 2 24 10 31 12 10 13 18 5 32
-5 10 -6 19 -2 19 4 0 8 16 8 35 0 19 -4 35 -9 35 -5 0 -4 6 1 13 5 6 8 23 6
37 -4 27 -4 27 -1 103 1 30 -2 58 -5 65 -4 6 -4 13 1 16 9 5 8 59 -2 75 -4 5
-1 13 5 17 8 5 7 9 -2 15 -18 11 -23 146 -6 179 6 13 20 33 30 43 11 10 17 27
14 37 -3 10 1 21 8 23 13 6 15 100 2 113 -4 4 -7 15 -7 25 0 9 -17 35 -37 58
-36 39 -38 44 -39 111 -1 49 3 70 11 70 7 0 11 11 9 26 -1 14 4 41 12 59 9 23
10 36 3 40 -6 5 -4 12 7 19 9 7 14 18 10 24 -3 5 -1 12 6 14 6 2 13 14 15 27
2 12 10 29 18 37 8 9 15 20 15 25 0 5 23 33 50 61 28 28 50 47 50 43 0 -5 10
1 23 12 22 20 131 75 143 73 4 -1 10 2 13 7 6 8 66 38 66 32 0 -1 11 4 25 11
14 8 29 13 33 12 4 -1 10 4 13 12 4 11 12 13 30 5 14 -5 23 -5 20 0 -6 8 52
38 66 34 3 -1 12 4 18 12 7 8 23 15 36 15 13 0 24 4 24 10 0 5 3 9 8 8 4 -1
17 3 30 10 12 7 22 10 22 7 0 -3 10 0 23 7 12 7 27 12 32 13 6 0 27 8 49 18
21 9 42 17 47 17 5 0 9 5 9 10 0 6 11 10 24 10 14 0 27 4 30 9 4 5 17 8 31 6
16 -1 25 3 25 11 0 8 3 13 8 12 4 -1 16 3 27 9 11 6 28 9 37 8 9 -2 19 3 22
11 4 9 15 13 31 10 14 -3 25 0 25 5 0 5 5 9 11 9 6 0 17 7 26 15 12 12 18 13
29 4 10 -8 14 -8 14 0 0 6 11 13 25 17 14 3 25 10 25 15 0 5 16 8 35 6 19 -3
35 0 35 4 0 5 12 12 28 15 15 4 32 9 37 13 6 3 30 6 55 6 61 1 95 -32 91 -85
-2 -27 -60 -82 -87 -82 -13 0 -24 -4 -24 -9 0 -5 -13 -9 -30 -9 -16 0 -30 -4
-30 -10 0 -5 -7 -10 -15 -10 -8 0 -35 -9 -60 -21 -24 -11 -48 -18 -53 -15 -6
3 -12 -1 -15 -9 -4 -8 -15 -12 -26 -10 -11 2 -25 -3 -31 -10 -6 -8 -17 -12
-24 -9 -8 3 -16 -2 -20 -11 -4 -10 -12 -15 -22 -11 -8 3 -26 -1 -40 -10 -13
-9 -24 -13 -24 -10 0 4 -18 -3 -40 -14 -22 -11 -40 -18 -40 -15 0 4 -10 -1
-22 -9 -12 -9 -30 -16 -40 -16 -10 0 -18 -5 -18 -10 0 -6 -6 -10 -12 -9 -7 1
-26 -3 -41 -9 -16 -7 -34 -12 -40 -12 -7 0 -22 -7 -34 -15 -12 -8 -29 -16 -40
-18 -10 -2 -34 -10 -53 -19 -19 -9 -52 -22 -72 -29 -21 -7 -38 -17 -38 -21 0
-4 -10 -8 -23 -8 -13 0 -27 -3 -31 -7 -4 -5 -11 -8 -14 -9 -21 -2 -62 -25 -62
-34 0 -6 -11 -8 -26 -6 -32 6 -44 -20 -18 -39 10 -7 22 -11 26 -9 5 3 8 1 8
-5 0 -6 7 -8 15 -5 8 4 15 2 15 -3 0 -5 12 -10 27 -11 15 -1 30 -7 34 -13 4
-7 12 -8 19 -4 6 4 20 -1 30 -10 10 -9 24 -14 30 -10 7 4 15 3 19 -3 4 -7 16
-13 26 -15 11 -2 29 -8 40 -13 11 -6 27 -10 35 -9 8 0 17 -2 20 -5 12 -13 51
-30 69 -30 11 0 23 -4 26 -10 3 -5 17 -10 30 -10 13 0 27 -5 31 -11 3 -6 14
-9 23 -6 9 2 23 -2 30 -10 7 -8 22 -13 32 -10 10 3 20 -1 23 -8 2 -7 16 -12
30 -11 14 2 27 -3 30 -11 3 -8 10 -12 16 -8 5 3 23 -1 40 -10 16 -8 30 -12 30
-8 0 4 5 2 12 -5 7 -7 22 -12 35 -12 13 0 23 -4 23 -8 0 -4 12 -9 26 -10 15
-1 33 -7 40 -13 8 -6 20 -9 28 -6 8 3 17 0 20 -8 2 -7 13 -12 23 -10 10 1 24
-3 32 -9 8 -6 22 -11 31 -11 9 0 24 -6 32 -13 13 -10 18 -10 29 0 8 7 23 13
34 13 11 -1 23 3 26 8 4 5 18 10 32 10 14 0 28 5 31 13 3 8 15 11 31 8 19 -3
24 -1 19 7 -5 9 -2 10 9 6 10 -3 17 -2 17 3 0 5 6 7 14 4 8 -3 17 -1 21 5 3 6
17 11 31 11 13 0 24 5 24 11 0 5 3 8 8 6 4 -3 18 0 32 6 14 5 33 11 43 12 11
1 22 6 25 11 4 5 16 10 27 9 11 0 23 3 26 7 3 5 17 9 32 10 15 1 27 5 27 8 0
6 74 30 94 30 7 0 19 7 26 15 9 10 17 12 23 6 6 -6 15 -4 25 5 8 9 23 13 33
11 10 -3 20 1 23 8 3 8 13 12 23 10 10 -1 24 2 31 8 8 6 23 12 35 14 11 2 27
8 34 15 7 6 16 8 20 5 3 -3 18 0 33 8 15 8 31 11 34 7 4 -4 12 1 17 10 6 11
18 15 35 12 16 -3 23 -1 19 6 -4 6 6 10 24 10 17 0 31 5 31 11 0 5 8 9 18 8 9
-2 27 3 40 9 12 7 26 11 31 8 5 -3 14 1 21 10 7 8 19 13 26 10 8 -3 19 1 26 8
8 7 21 12 31 10 9 -1 23 4 31 11 7 8 16 12 18 9 3 -2 21 3 41 11 21 8 37 13
37 10 0 -4 10 1 21 9 12 8 27 12 34 10 7 -3 16 -1 20 5 3 6 17 11 30 11 13 0
27 5 31 11 3 6 14 9 24 6 11 -3 21 2 25 11 3 8 8 12 12 9 3 -3 21 0 40 8 19 8
39 13 43 10 5 -3 10 -1 12 4 1 6 16 12 32 15 16 3 32 9 35 13 3 5 13 8 21 8 8
-1 20 2 25 5 6 4 30 13 55 20 25 7 50 18 57 22 6 5 17 8 25 7 12 -2 67 19 78
31 3 3 14 10 25 16 31 17 33 87 3 116 -13 13 -30 24 -38 26 -8 2 -17 7 -20 11
-3 4 -12 6 -20 6 -8 -1 -23 5 -32 13 -10 8 -18 12 -18 8 0 -3 -10 0 -23 9 -13
8 -27 12 -30 9 -4 -4 -13 -2 -21 5 -8 6 -25 14 -37 16 -13 3 -25 9 -27 15 -2
6 -10 7 -22 0 -13 -7 -20 -6 -22 2 -2 6 -14 12 -25 13 -12 0 -28 7 -37 14 -8
7 -21 11 -28 9 -7 -3 -18 1 -25 8 -7 7 -21 11 -30 10 -10 -2 -21 1 -25 7 -3 6
-14 11 -25 12 -10 1 -28 6 -39 13 -12 6 -24 9 -27 6 -3 -3 -16 1 -28 9 -11 9
-27 13 -34 11 -7 -3 -16 -1 -20 5 -3 6 -17 11 -31 11 -13 0 -24 5 -24 10 0 6
-7 10 -15 10 -24 0 -95 24 -95 32 0 4 -9 5 -20 3 -11 -2 -25 2 -32 8 -7 7 -24
13 -37 14 -13 1 -27 6 -30 10 -3 4 -17 10 -31 11 -14 2 -26 8 -28 12 -2 5 -9
7 -17 4 -7 -3 -25 2 -39 11 -14 9 -29 16 -33 16 -17 -1 -58 12 -70 22 -7 5
-22 7 -32 4 -12 -3 -22 1 -25 10 -4 8 -12 13 -20 10 -8 -3 -22 0 -32 7 -11 7
-27 12 -36 11 -9 -2 -19 3 -22 10 -2 7 -16 11 -29 10 -15 -2 -28 3 -31 12 -3
8 -11 11 -17 7 -6 -3 -21 -2 -32 4 -12 6 -51 20 -87 32 -36 12 -72 24 -80 27
-8 3 -26 8 -40 10 -14 2 -26 8 -28 14 -2 5 -17 9 -33 9 -17 0 -28 4 -24 10 3
5 -7 8 -24 5 -17 -2 -35 2 -41 10 -6 8 -20 12 -31 10 -11 -2 -22 2 -26 10 -3
8 -9 12 -15 9 -5 -3 -18 2 -29 12 -13 12 -19 13 -19 4 0 -9 -3 -10 -13 -1 -8
6 -17 8 -21 3 -4 -4 -12 1 -18 11 -7 14 -13 15 -23 7 -9 -8 -17 -7 -28 5 -18
17 -53 20 -62 5z"/>
<path d="M3890 2722 c0 -9 -59 -32 -83 -32 -9 0 -17 -4 -17 -10 0 -5 -13 -10
-28 -10 -30 0 -82 -20 -82 -32 0 -4 -11 -5 -24 -2 -15 2 -26 -2 -30 -12 -3 -8
-10 -13 -16 -9 -5 3 -20 0 -32 -7 -13 -6 -31 -11 -40 -10 -9 2 -36 -7 -60 -19
-24 -13 -51 -22 -60 -20 -10 1 -18 -2 -18 -7 0 -5 -14 -9 -32 -10 -17 0 -34
-6 -38 -13 -4 -6 -12 -9 -18 -5 -5 3 -15 0 -21 -8 -7 -8 -19 -13 -29 -12 -9 2
-23 -3 -30 -11 -8 -7 -18 -11 -23 -7 -6 3 -16 1 -23 -5 -7 -6 -21 -12 -32 -14
-19 -4 -40 -11 -82 -28 -13 -5 -32 -9 -42 -9 -11 0 -20 -5 -20 -11 0 -7 -10
-9 -24 -7 -15 3 -27 0 -30 -8 -3 -8 -20 -14 -41 -14 -20 0 -35 -5 -35 -12 0
-6 -3 -8 -6 -5 -4 3 -16 1 -28 -5 -11 -7 -34 -13 -49 -14 -16 -1 -34 -8 -42
-14 -8 -7 -18 -9 -23 -6 -6 3 -15 0 -21 -7 -6 -8 -21 -13 -33 -12 -13 1 -34
-3 -48 -10 -27 -12 -57 -9 -78 8 -7 5 -15 7 -19 4 -3 -4 -15 -1 -27 5 -11 7
-30 13 -42 13 -11 1 -27 6 -35 11 -8 5 -22 7 -32 6 -9 -2 -20 3 -23 12 -3 9
-14 13 -30 10 -13 -2 -24 0 -24 6 0 5 -13 10 -29 10 -16 0 -31 6 -34 14 -4 9
-14 12 -25 9 -11 -2 -23 0 -26 6 -4 6 -18 11 -32 11 -13 0 -24 5 -24 11 0 6
-9 9 -20 6 -11 -3 -26 0 -33 7 -6 6 -23 12 -36 13 -13 1 -27 6 -30 10 -3 5
-13 8 -21 8 -8 -1 -19 2 -25 6 -5 4 -19 9 -30 11 -11 1 -23 7 -26 12 -4 5 -18
9 -33 9 -14 0 -26 3 -26 8 0 5 -9 9 -20 9 -12 0 -33 8 -47 18 -15 9 -24 12
-20 5 5 -7 0 -9 -13 -6 -11 3 -20 9 -20 14 0 5 -11 9 -24 9 -14 0 -28 5 -31
10 -4 6 -12 9 -18 8 -7 -1 -23 4 -35 11 -13 7 -26 10 -29 7 -4 -3 -11 -1 -18
4 -6 5 -20 11 -31 13 -10 1 -26 7 -34 12 -15 9 -21 11 -83 21 -20 3 -40 10
-43 15 -3 5 -16 9 -29 9 -13 0 -25 6 -28 13 -3 8 -11 4 -25 -11 -11 -13 -18
-30 -16 -37 3 -7 1 -16 -5 -20 -6 -3 -11 -37 -11 -75 0 -38 -5 -72 -10 -75
-12 -7 45 -68 73 -78 10 -4 15 -11 12 -17 -3 -6 1 -13 9 -16 16 -6 32 -41 27
-62 -1 -7 5 -15 13 -18 8 -3 12 -12 9 -19 -2 -8 -1 -20 4 -27 11 -18 13 -138
2 -138 -5 0 -9 -11 -9 -24 0 -14 -5 -28 -10 -31 -6 -4 -8 -10 -5 -15 3 -5 -3
-13 -12 -19 -10 -6 -13 -11 -8 -11 6 0 3 -4 -5 -10 -26 -16 -20 -61 13 -91 17
-16 34 -26 39 -23 4 3 8 1 8 -5 0 -5 18 -20 40 -32 22 -12 36 -27 33 -33 -3
-6 -2 -8 2 -3 5 4 19 0 32 -8 13 -9 28 -13 33 -10 6 3 10 2 10 -3 0 -10 50
-37 63 -34 4 1 21 -5 37 -13 16 -9 31 -15 32 -14 2 0 17 -5 33 -12 17 -7 37
-14 45 -15 39 -7 63 -14 75 -24 10 -8 15 -8 20 0 5 8 12 7 23 -2 10 -8 24 -14
32 -13 8 1 26 -3 40 -8 14 -4 39 -10 55 -12 17 -2 46 -8 65 -12 19 -5 51 -8
70 -7 19 0 38 -4 41 -9 4 -5 67 -11 140 -13 176 -6 235 -10 248 -18 6 -4 11
-3 11 1 0 5 18 7 40 5 22 -2 46 0 53 5 6 5 68 9 137 9 77 -1 129 3 137 10 6 6
35 10 65 9 29 -1 56 3 59 8 4 5 24 10 45 11 22 1 45 5 52 10 7 4 29 8 50 10
21 1 44 6 52 11 8 5 25 8 37 7 11 -2 24 2 28 7 3 6 16 11 28 11 12 0 40 9 62
19 43 21 74 34 90 37 27 4 75 27 75 36 0 5 4 7 9 3 5 -3 17 2 26 11 9 9 19 14
22 10 3 -3 13 3 21 15 8 11 20 18 29 15 8 -3 11 -1 8 4 -3 6 -2 10 2 10 5 0
19 10 33 23 14 13 33 26 43 30 9 3 21 17 26 29 5 13 20 34 35 47 14 13 23 27
20 32 -2 4 4 12 13 18 10 6 15 11 11 11 -4 0 -1 15 7 32 9 22 10 39 4 50 -6
10 -6 18 -1 18 5 0 9 13 8 30 -1 16 -4 30 -7 30 -4 0 -3 18 1 40 4 22 3 43 -1
46 -5 3 -6 10 -2 17 8 14 9 58 0 80 -3 9 -3 18 2 21 6 4 7 70 1 86 -1 3 -1 10
0 15 7 35 4 115 -5 115 -7 0 -7 3 0 8 15 10 13 72 -2 72 -7 0 -13 5 -13 10 0
6 -7 10 -15 10 -8 0 -15 -4 -15 -8z"/>
</g>
</svg>
